<svg width="150" height="60" viewBox="0 0 150 60" fill="none" xmlns="http://www.w3.org/2000/svg">
<rect x="9" y="1" width="10.1223" height="10.1223" fill="#3056D3"/>
<path d="M9 21.25H19.1223V42.3043H9V21.25Z" fill="#3056D3"/>
<rect x="19.125" y="11.1172" width="10.1223" height="10.1223" fill="#3056D3"/>
<path d="M29.7067 58.9C27.0493 59.4926 24.2886 59.4384 21.6565 58.7422C19.0244 58.0459 16.598 56.7279 14.5813 54.8988C12.5646 53.0698 11.0165 50.7833 10.0672 48.2316C9.11789 45.6798 8.79515 42.9375 9.12611 40.2351L19.1693 41.4651C19.0353 42.5595 19.166 43.6702 19.5504 44.7036C19.9349 45.7371 20.5619 46.6631 21.3787 47.4039C22.1954 48.1446 23.1781 48.6784 24.2441 48.9604C25.3101 49.2424 26.4282 49.2643 27.5044 49.0243L29.7067 58.9Z" fill="#3056D3"/>
<path d="M134.043 59.314V41.1824H139.631V59.314H134.043ZM136.914 36.5004C135.987 36.5004 135.199 36.1765 134.551 35.5287C133.918 34.8809 133.602 34.1079 133.602 33.2098C133.602 32.3117 133.925 31.5314 134.573 30.8688C135.221 30.2063 136.001 29.875 136.914 29.875C137.518 29.875 138.07 30.0296 138.571 30.3388C139.071 30.6332 139.476 31.0308 139.785 31.5314C140.094 32.0319 140.249 32.5914 140.249 33.2098C140.249 34.1079 139.918 34.8809 139.255 35.5287C138.607 36.1765 137.827 36.5004 136.914 36.5004Z" fill="#3056D3"/>
<path d="M109.578 59.3115V28.4688H115.188V43.663C115.305 43.2361 115.651 42.7502 116.226 42.2055C116.8 41.6607 117.558 41.1896 118.5 40.792C119.457 40.3945 120.54 40.1957 121.747 40.1957C123.484 40.1957 125.001 40.6154 126.296 41.4546C127.607 42.2938 128.623 43.4422 129.344 44.8998C130.08 46.3427 130.448 47.9769 130.448 49.8026C130.448 51.6283 130.08 53.2699 129.344 54.7275C128.623 56.1704 127.607 57.3114 126.296 58.1506C125.001 58.9751 123.484 59.3874 121.747 59.3874C120.672 59.3874 119.671 59.1886 118.743 58.7911C117.83 58.3936 117.057 57.9077 116.424 57.3335C115.806 56.7593 115.372 56.2145 115.121 55.6992V59.3115H109.578ZM124.927 49.8026C124.927 48.7867 124.714 47.896 124.287 47.1304C123.86 46.35 123.285 45.7464 122.564 45.3194C121.843 44.8777 121.04 44.6569 120.157 44.6569C119.229 44.6569 118.39 44.8777 117.639 45.3194C116.888 45.7611 116.292 46.3721 115.85 47.1524C115.408 47.918 115.188 48.8014 115.188 49.8026C115.188 50.8038 115.408 51.6945 115.85 52.4749C116.292 53.2405 116.888 53.8441 117.639 54.2858C118.39 54.7128 119.229 54.9263 120.157 54.9263C121.04 54.9263 121.843 54.7128 122.564 54.2858C123.285 53.8588 123.86 53.2625 124.287 52.4969C124.714 51.7166 124.927 50.8185 124.927 49.8026Z" fill="#3056D3"/>
<path d="M96.0057 59.3869C94.077 59.3869 92.3544 58.9747 90.8379 58.1502C89.3362 57.3257 88.1583 56.1994 87.3044 54.7712C86.4504 53.3284 86.0234 51.6867 86.0234 49.8463C86.0234 48.0059 86.4504 46.3643 87.3044 44.9214C88.1583 43.4639 89.3362 42.3154 90.8379 41.4762C92.3544 40.6223 94.077 40.1953 96.0057 40.1953C97.9492 40.1953 99.6644 40.6223 101.151 41.4762C102.639 42.3154 103.802 43.4639 104.641 44.9214C105.48 46.3643 105.9 48.0059 105.9 49.8463C105.9 51.6867 105.48 53.3284 104.641 54.7712C103.802 56.1994 102.639 57.3257 101.151 58.1502C99.6644 58.9747 97.9492 59.3869 96.0057 59.3869ZM96.0057 54.7271C96.9333 54.7271 97.7357 54.5209 98.413 54.1087C99.105 53.6817 99.635 53.1002 100.003 52.364C100.386 51.6131 100.577 50.7665 100.577 49.8243C100.577 48.882 100.386 48.0354 100.003 47.2845C99.635 46.5336 99.105 45.9447 98.413 45.5177C97.7357 45.076 96.9333 44.8552 96.0057 44.8552C95.0782 44.8552 94.2684 45.076 93.5764 45.5177C92.8992 45.9447 92.3691 46.5336 91.9863 47.2845C91.6035 48.0354 91.4121 48.882 91.4121 49.8243C91.4121 50.7665 91.6035 51.6131 91.9863 52.364C92.3691 53.1002 92.8992 53.6817 93.5764 54.1087C94.2684 54.5209 95.0782 54.7271 96.0057 54.7271Z" fill="#3056D3"/>
<path d="M69.6716 51.0389C69.7158 51.8634 69.9366 52.5996 70.3341 53.2474C70.7316 53.8952 71.3059 54.4032 72.0567 54.7712C72.8223 55.1393 73.7352 55.3234 74.7952 55.3234C75.7522 55.3234 76.5915 55.2056 77.3129 54.97C78.0491 54.7344 78.6674 54.4473 79.168 54.1087C79.6833 53.7553 80.0661 53.4167 80.3164 53.0928L82.6353 56.538C82.2231 57.0533 81.671 57.5318 80.979 57.9735C80.3017 58.4005 79.433 58.7391 78.373 58.9894C77.3276 59.2544 76.0173 59.3869 74.4419 59.3869C72.4543 59.3869 70.7096 58.9968 69.2078 58.2165C67.706 57.4361 66.5356 56.3098 65.6963 54.8375C64.8571 53.3652 64.4375 51.6131 64.4375 49.5813C64.4375 47.8145 64.8129 46.2244 65.5638 44.811C66.3147 43.3829 67.4042 42.2566 68.8324 41.4321C70.2752 40.6076 72.0052 40.1953 74.0223 40.1953C75.9216 40.1953 77.5632 40.5634 78.9472 41.2995C80.3459 42.021 81.428 43.0811 82.1936 44.4798C82.9592 45.8784 83.342 47.5863 83.342 49.6034C83.342 49.7212 83.3347 49.9641 83.32 50.3322C83.32 50.6856 83.3052 50.9211 83.2758 51.0389H69.6716ZM78.0859 47.5716C78.0711 47.1005 77.9239 46.5925 77.6442 46.0478C77.3792 45.503 76.9595 45.0392 76.3853 44.6564C75.8111 44.2736 75.0455 44.0822 74.0885 44.0822C73.1315 44.0822 72.3438 44.2663 71.7255 44.6343C71.1218 45.0024 70.6654 45.4588 70.3562 46.0036C70.047 46.5336 69.8703 47.0563 69.8262 47.5716H78.0859Z" fill="#3056D3"/>
<path d="M60.7332 59.3105H55.1016V28.9219H60.7332V59.3105Z" fill="#3056D3"/>
<path d="M37.6208 51.0389C37.665 51.8634 37.8858 52.5996 38.2833 53.2474C38.6809 53.8952 39.2551 54.4032 40.006 54.7712C40.7716 55.1393 41.6844 55.3234 42.7445 55.3234C43.7015 55.3234 44.5407 55.2056 45.2621 54.97C45.9983 54.7344 46.6167 54.4473 47.1172 54.1087C47.6326 53.7553 48.0154 53.4167 48.2656 53.0928L50.5845 56.538C50.1723 57.0533 49.6202 57.5318 48.9282 57.9735C48.2509 58.4005 47.3823 58.7391 46.3222 58.9894C45.2768 59.2544 43.9665 59.3869 42.3911 59.3869C40.4035 59.3869 38.6588 58.9968 37.157 58.2165C35.6553 57.4361 34.4848 56.3098 33.6455 54.8375C32.8063 53.3652 32.3867 51.6131 32.3867 49.5813C32.3867 47.8145 32.7622 46.2244 33.513 44.811C34.2639 43.3829 35.3534 42.2566 36.7816 41.4321C38.2245 40.6076 39.9544 40.1953 41.9715 40.1953C43.8708 40.1953 45.5124 40.5634 46.8964 41.2995C48.2951 42.021 49.3772 43.0811 50.1429 44.4798C50.9085 45.8784 51.2913 47.5863 51.2913 49.6034C51.2913 49.7212 51.2839 49.9641 51.2692 50.3322C51.2692 50.6856 51.2544 50.9211 51.225 51.0389H37.6208ZM46.0351 47.5716C46.0204 47.1005 45.8731 46.5925 45.5934 46.0478C45.3284 45.503 44.9088 45.0392 44.3346 44.6564C43.7604 44.2736 42.9948 44.0822 42.0378 44.0822C41.0807 44.0822 40.2931 44.2663 39.6747 44.6343C39.071 45.0024 38.6146 45.4588 38.3054 46.0036C37.9962 46.5336 37.8196 47.0563 37.7754 47.5716H46.0351Z" fill="#3056D3"/>
</svg>
